# xmcd CD database file
#
# Track frame offsets:
#	150
#	18743
#	38132
#	56713
#
# Disc length: 1011 seconds
#
# Revision: 1
# Processed by: cddbd v1.5.1PL0 Copyright (c) Steve Scherf et al.
# Submitted via: CDex 1.51
#
DISCID=3003f104
DTITLE=清水愛 - 針夢廃墟
DYEAR=2005
DGENRE=Seiyu
TTITLE0=針夢廃墟
TTITLE1=Arachnophobia
TTITLE2=針夢廃墟(off vocal)
TTITLE3=Arachnophobia(off vocal)
EXTD=YEAR: 2005
EXTT0=
EXTT1=
EXTT2=
EXTT3=
PLAYORDER=
